<svg xmlns="http://www.w3.org/2000/svg" version="1.1" xmlns:xlink="http://www.w3.org/1999/xlink" xmlns:svgjs="http://svgjs.com/svgjs" width="310" height="600"><g transform="matrix(1,0,0,1,4,4)"><rect width="300" height="500" stroke-width="8" stroke="#000000" fill="#e0e0e0" x="0" y="0"></rect><line x1="4" y1="430" x2="296" y2="430" stroke-dasharray="10, 10" stroke-width="8" stroke="#757575"></line><line x1="4" y1="110" x2="296" y2="110" stroke-dasharray="10, 10" stroke-width="8" stroke="#757575"></line><circle r="7.5" cx="60" cy="430" fill="#000000"></circle><text x="42.45197296142578" y="545" transform="matrix(1,0,0,1,0,0)" font-family="Arial" font-size="20" svgjs:data="{&quot;leading&quot;:&quot;1.3&quot;}"><tspan dy="0" x="42.45197296142578" svgjs:data="{&quot;leading&quot;:&quot;1.3&quot;,&quot;newLined&quot;:true}">start</tspan></text><circle r="7.5" cx="120" cy="398" fill="#000000"></circle><text x="105.32398223876953" y="545" transform="matrix(1,0,0,1,0,0)" font-family="Arial" font-size="20" svgjs:data="{&quot;leading&quot;:&quot;1.3&quot;}"><tspan dy="0" x="105.32398223876953" svgjs:data="{&quot;leading&quot;:&quot;1.3&quot;,&quot;newLined&quot;:true}">test</tspan></text><circle r="7.5" cx="180" cy="270" fill="#000000"></circle><text x="161.1875" y="545" transform="matrix(1,0,0,1,0,0)" font-family="Arial" font-size="20" svgjs:data="{&quot;leading&quot;:&quot;1.3&quot;}"><tspan dy="0" x="161.1875" svgjs:data="{&quot;leading&quot;:&quot;1.3&quot;,&quot;newLined&quot;:true}">hejsa</tspan></text><circle r="7.5" cx="240" cy="110" fill="#000000"></circle><text x="226.21875" y="545" transform="matrix(1,0,0,1,0,0)" font-family="Arial" font-size="20" svgjs:data="{&quot;leading&quot;:&quot;1.3&quot;}"><tspan dy="0" x="226.21875" svgjs:data="{&quot;leading&quot;:&quot;1.3&quot;,&quot;newLined&quot;:true}">end</tspan></text></g></svg>